<svg xmlns="http://www.w3.org/2000/svg" viewBox="0 0 1024 1024">
  <path fill="#000000" d="M0 0h1024v1024H0z"/>
  <g transform="translate(331, 140) scale(3)" fill="#a238ff" fill-rule="evenodd">
    <path d="M101.19 18.41c1.12-6.47 2.75-10.54 4.57-10.55 3.38.01 6.13 14.12 6.13 31.54s-2.75 31.54-6.13 31.54c-1.39 0-2.67-2.4-3.7-6.42-1.63 14.71-5.01 24.82-8.93 24.82-3.03 0-5.75-6.07-7.58-15.65-1.25 18.22-4.38 31.14-8.05 31.14-2.3 0-4.4-5.12-5.95-13.46-1.87 17.21-6.18 29.28-11.22 29.28s-9.36-12.06-11.22-29.28c-1.54 8.34-3.64 13.46-5.95 13.46-3.67 0-6.8-12.93-8.05-31.14-1.83 9.58-4.54 15.65-7.58 15.65-3.91 0-7.3-10.11-8.93-24.82-1.02 4.03-2.31 6.42-3.7 6.42-3.39 0-6.13-14.12-6.13-31.54S11.51 7.86 14.9 7.86c1.82 0 3.44 4.08 4.57 10.55C21.28 7.25 24.21 0 27.53 0c3.94 0 7.35 10.26 8.97 25.15C38.08 14.31 40.48 7.4 43.16 7.4c3.76 0 6.96 13.59 8.15 32.55 2.23-9.72 5.46-15.82 9.03-15.82s6.8 6.1 9.02 15.82C70.55 20.99 73.74 7.4 77.51 7.4c2.68 0 5.07 6.91 6.66 17.75C85.78 10.26 89.2 0 93.13 0c3.31 0 6.25 7.26 8.06 18.41zM0 36.3c0-7.79 1.56-14.1 3.48-14.1s3.48 6.31 3.48 14.1S5.4 50.4 3.48 50.4 0 44.08 0 36.3zm113.7 0c0-7.79 1.56-14.1 3.48-14.1s3.48 6.31 3.48 14.1-1.56 14.1-3.48 14.1-3.48-6.32-3.48-14.1z"/>
  </g>
  <g fill="none" stroke="#a238ff" stroke-linecap="round" stroke-linejoin="round" transform="matrix(.9 0 0 .9 51.2 1.2)">
    <path stroke-width="38" d="M512 400V725"/>
<path stroke-width="38" d="m420 642 92 110 92-110M290 762v90q0 72 72 72h300q72 0 72-72v-90"/>
  </g>
</svg>
