<svg xmlns="http://www.w3.org/2000/svg" viewBox="0 0 1024 1024">
  <path fill="#000000" d="M0 0h1024v1024H0z"/>
  <g transform="translate(512,200) scale(1.25) translate(-726,-50)" fill="#ffffff" fill-rule="evenodd">
    <path d="M596.8 0h.8c6.102 7 13 13.2 19.5 19.9l44.2 44.2v.8c-21.398 21.3-42.7 42.8-64.1 64.1-21.5-21.4-42.9-42.9-64.4-64.3 1.102-2.1 3.2-3.5 4.8-5.2C557.3 39.6 577.3 20 596.8 0z"/>
    <path d="M725.8 0h.8c.602.9 1.2 1.7 2 2.5 20.7 20.5 41.102 41.3 62 61.7-.5 1.2-1.6 2-2.5 2.9-20.698 20.6-41.3 41.3-62 61.9-21.6-21.3-42.8-43-64.5-64.2 21-21.9 43.1-43 64.2-64.8z"/>
    <path d="M854.8 0h.8c4 4.8 8.7 8.9 13 13.4 16.2 16.2 32.302 32.3 48.5 48.5.802.9 2.102 1.7 2.4 3-21.7 21.1-42.7 43-64.5 64.1l-61.5-61.5c-1-1.1-2.3-1.9-2.8-3.3C801.6 53.6 812.2 42.7 823 32c10.6-10.7 21.4-21.1 31.8-32z"/>
    <path d="M662.5 192.5c21.1-21.1 42.3-42.2 63.4-63.4l.898.4c21.2 21.3 42.4 42.6 63.8 63.7-.698 1.6-2.198 2.5-3.3 3.8-15.398 15.3-30.8 30.8-46.2 46.1-5 4.8-9.8 10.2-14.898 14.7-7.3-6.6-14-14-21.102-20.8-14.398-14.4-28.698-28.8-43.198-43.1.2-.4.4-1 .6-1.4z"/>
  </g>
  <g fill="none" stroke="#fff" stroke-linecap="round" stroke-linejoin="round" transform="matrix(.9 0 0 .9 51.2 1.2)">
    <path stroke-width="38" d="M512 400V725"/>
    <path stroke-width="38" d="m420 642 92 110 92-110M290 762v90q0 72 72 72h300q72 0 72-72v-90"/>
  </g>
</svg>
